<svg xmlns="http://www.w3.org/2000/svg" viewBox="0 0 1200 300" preserveAspectRatio="xMidYMid meet">
  <defs>
    <linearGradient id="g" x1="0%" y1="0%" x2="100%" y2="0%">
      <stop offset="0%" style="stop-color:#f5edcc;stop-opacity:1"/>
      <stop offset="100%" style="stop-color:#ffffff;stop-opacity:1"/>
    </linearGradient>
  </defs>
  <rect width="1200" height="300" fill="url(#g)"/>
  <rect x="0" y="0" width="8" height="300" fill="#d4a017"/>
  <!-- Diagonal weave grid — textile / trade threads theme -->
  <line x1="845" y1="30"  x2="1145" y2="270" stroke="#cccccc" stroke-width="0.8" opacity="0.22"/>
  <line x1="885" y1="30"  x2="1145" y2="230" stroke="#cccccc" stroke-width="0.8" opacity="0.22"/>
  <line x1="925" y1="30"  x2="1145" y2="190" stroke="#cccccc" stroke-width="0.8" opacity="0.22"/>
  <line x1="965" y1="30"  x2="1145" y2="150" stroke="#cccccc" stroke-width="0.8" opacity="0.22"/>
  <line x1="845" y1="70"  x2="1105" y2="270" stroke="#cccccc" stroke-width="0.8" opacity="0.22"/>
  <line x1="845" y1="110" x2="1065" y2="270" stroke="#cccccc" stroke-width="0.8" opacity="0.22"/>
  <line x1="845" y1="150" x2="1025" y2="270" stroke="#cccccc" stroke-width="0.8" opacity="0.22"/>
  <line x1="845" y1="270" x2="1145" y2="30"  stroke="#cccccc" stroke-width="0.8" opacity="0.22"/>
  <line x1="885" y1="270" x2="1145" y2="70"  stroke="#cccccc" stroke-width="0.8" opacity="0.22"/>
  <line x1="925" y1="270" x2="1145" y2="110" stroke="#cccccc" stroke-width="0.8" opacity="0.22"/>
  <line x1="965" y1="270" x2="1145" y2="150" stroke="#cccccc" stroke-width="0.8" opacity="0.22"/>
  <line x1="845" y1="230" x2="1105" y2="30"  stroke="#cccccc" stroke-width="0.8" opacity="0.22"/>
  <line x1="845" y1="190" x2="1065" y2="30"  stroke="#cccccc" stroke-width="0.8" opacity="0.22"/>
  <line x1="845" y1="150" x2="1025" y2="30"  stroke="#cccccc" stroke-width="0.8" opacity="0.22"/>
  <text x="160" y="150" font-family="Georgia, serif" font-size="52" fill="#555555" dominant-baseline="middle">Spain · Innovation · Trade Policy · 19th Century</text>
</svg>
